<?xml version="1.0" encoding="utf-8"?>
<!-- Generator: Adobe Illustrator 19.1.0, SVG Export Plug-In . SVG Version: 6.00 Build 0)  -->
<svg version="1.1" id="objects" xmlns="http://www.w3.org/2000/svg" xmlns:xlink="http://www.w3.org/1999/xlink" x="0px" y="0px"
	 viewBox="0 0 800 800" style="enable-background:new 0 0 800 800;" xml:space="preserve">
<style type="text/css">
	.st0{fill:#E0E0E0;}
	.st1{fill-rule:evenodd;clip-rule:evenodd;fill:#B3B3B3;}
	.st2{fill-rule:evenodd;clip-rule:evenodd;fill:#C4C0B2;}
	.st3{fill-rule:evenodd;clip-rule:evenodd;fill:#D1CDC1;}
	.st4{fill-rule:evenodd;clip-rule:evenodd;fill:#2196F3;}
	.st5{fill-rule:evenodd;clip-rule:evenodd;fill:#999999;}
	.st6{fill-rule:evenodd;clip-rule:evenodd;fill:#FFFFFF;}
	.st7{fill-rule:evenodd;clip-rule:evenodd;fill:#333333;}
	.st8{fill-rule:evenodd;clip-rule:evenodd;fill:#FFA000;}
	.st9{fill-rule:evenodd;clip-rule:evenodd;fill:#ABA695;}
	.st10{fill-rule:evenodd;clip-rule:evenodd;fill:#424242;}
	.st11{fill-rule:evenodd;clip-rule:evenodd;fill:#636262;}
	.st12{fill-rule:evenodd;clip-rule:evenodd;fill:#8BC34A;stroke:#424242;stroke-width:0.5;stroke-miterlimit:2.6131;}
	.st13{fill-rule:evenodd;clip-rule:evenodd;fill:#FFC107;stroke:#424242;stroke-width:0.5;stroke-miterlimit:2.6131;}
	.st14{fill-rule:evenodd;clip-rule:evenodd;fill:#F44336;stroke:#424242;stroke-width:0.5;stroke-miterlimit:2.6131;}
</style>
<circle class="st0" cx="408" cy="400.2" r="371.3"/>
<g>
	<polygon class="st1" points="69.4,358.7 166.3,290.1 174.6,287 636.9,287 645.1,289.8 745.7,358.7 	"/>
	<path class="st2" d="M746.6,357.7c0,51.7,0,103.5,0,155.2H69.4c0-51.7,0-103.5,0-155.2H746.6z"/>
	<rect x="69.4" y="435.1" class="st2" width="677.2" height="51.9"/>
	<polygon class="st3" points="746.6,357.7 746.6,435.1 746.6,435.1 69.4,435.1 69.4,434.6 69.4,357.7 	"/>
	<path class="st4" d="M746.6,487.8c0,3,0,6,0,9H69.4c0-3,0-6,0-9H746.6z"/>
	<path class="st5" d="M112.3,440.2h30.1c1.4,0,2.6,1.2,2.6,2.6v28.4c0,1.4-1.2,2.6-2.6,2.6h-30.1c-1.4,0-2.6-1.2-2.6-2.6v-28.4
		C109.8,441.4,110.9,440.2,112.3,440.2z"/>
	<g>
		<g>
			<path class="st6" d="M112.3,441.5h30.1c1.4,0,2.6,1.2,2.6,2.6v28.4c0,1.4-1.2,2.6-2.6,2.6h-30.1c-1.4,0-2.6-1.2-2.6-2.6V444
				C109.8,442.6,110.9,441.5,112.3,441.5z"/>
			<polygon class="st7" points="113.7,445.5 141.1,445.5 141.1,463.1 136.6,463.1 136.6,465.6 132.8,465.6 132.8,467.8 122,467.8 
				122,465.6 118.2,465.6 118.2,463.1 113.7,463.1 			"/>
			<g>
				<rect x="116.3" y="447" class="st8" width="3.6" height="5.7"/>
				<rect x="122.5" y="447" class="st8" width="3.6" height="5.7"/>
				<rect x="128.7" y="447" class="st8" width="3.6" height="5.7"/>
				<rect x="134.9" y="447" class="st8" width="3.6" height="5.7"/>
			</g>
		</g>
		<path class="st5" d="M112.3,395.5h30.1c1.4,0,2.6,1.2,2.6,2.6v28.4c0,1.4-1.2,2.6-2.6,2.6h-30.1c-1.4,0-2.6-1.2-2.6-2.6v-28.4
			C109.8,396.7,110.9,395.5,112.3,395.5z"/>
		<g>
			<path class="st6" d="M112.3,394.5h30.1c1.4,0,2.6,1.2,2.6,2.6v28.4c0,1.4-1.2,2.6-2.6,2.6h-30.1c-1.4,0-2.6-1.2-2.6-2.6V397
				C109.8,395.6,110.9,394.5,112.3,394.5z"/>
			<polygon class="st7" points="113.7,398.5 141.1,398.5 141.1,416.1 136.6,416.1 136.6,418.6 132.8,418.6 132.8,420.8 122,420.8 
				122,418.6 118.2,418.6 118.2,416.1 113.7,416.1 			"/>
			<g>
				<rect x="116.3" y="400" class="st8" width="3.6" height="5.7"/>
				<rect x="122.5" y="400" class="st8" width="3.6" height="5.7"/>
				<rect x="128.7" y="400" class="st8" width="3.6" height="5.7"/>
				<rect x="134.9" y="400" class="st8" width="3.6" height="5.7"/>
			</g>
		</g>
	</g>
	<g>
		<g>
			<path class="st6" d="M174.5,441.5h30.1c1.4,0,2.6,1.2,2.6,2.6v28.4c0,1.4-1.2,2.6-2.6,2.6h-30.1c-1.4,0-2.6-1.2-2.6-2.6V444
				C171.9,442.6,173,441.5,174.5,441.5z"/>
			<polygon class="st7" points="175.8,445.5 203.2,445.5 203.2,463.1 198.7,463.1 198.7,465.6 194.9,465.6 194.9,467.8 184.1,467.8 
				184.1,465.6 180.3,465.6 180.3,463.1 175.8,463.1 			"/>
			<g>
				<rect x="178.4" y="447" class="st8" width="3.6" height="5.7"/>
				<rect x="184.6" y="447" class="st8" width="3.6" height="5.7"/>
				<rect x="190.8" y="447" class="st8" width="3.6" height="5.7"/>
				<rect x="197" y="447" class="st8" width="3.6" height="5.7"/>
			</g>
		</g>
		<path class="st5" d="M174.5,395.5h30.1c1.4,0,2.6,1.2,2.6,2.6v28.4c0,1.4-1.2,2.6-2.6,2.6h-30.1c-1.4,0-2.6-1.2-2.6-2.6v-28.4
			C171.9,396.7,173,395.5,174.5,395.5z"/>
		<g>
			<path class="st6" d="M174.5,394.5h30.1c1.4,0,2.6,1.2,2.6,2.6v28.4c0,1.4-1.2,2.6-2.6,2.6h-30.1c-1.4,0-2.6-1.2-2.6-2.6V397
				C171.9,395.6,173,394.5,174.5,394.5z"/>
			<polygon class="st7" points="175.8,398.5 203.2,398.5 203.2,416.1 198.7,416.1 198.7,418.6 194.9,418.6 194.9,420.8 184.1,420.8 
				184.1,418.6 180.3,418.6 180.3,416.1 175.8,416.1 			"/>
			<g>
				<rect x="178.4" y="400" class="st8" width="3.6" height="5.7"/>
				<rect x="184.6" y="400" class="st8" width="3.6" height="5.7"/>
				<rect x="190.8" y="400" class="st8" width="3.6" height="5.7"/>
				<rect x="197" y="400" class="st8" width="3.6" height="5.7"/>
			</g>
		</g>
	</g>
	<g>
		<g>
			<path class="st6" d="M236.6,441.5h30.1c1.4,0,2.6,1.2,2.6,2.6v28.4c0,1.4-1.2,2.6-2.6,2.6h-30.1c-1.4,0-2.6-1.2-2.6-2.6V444
				C234,442.6,235.2,441.5,236.6,441.5z"/>
			<polygon class="st7" points="237.9,445.5 265.4,445.5 265.4,463.1 260.8,463.1 260.8,465.6 257,465.6 257,467.8 246.3,467.8 
				246.3,465.6 242.5,465.6 242.5,463.1 237.9,463.1 			"/>
			<g>
				<rect x="240.5" y="447" class="st8" width="3.6" height="5.7"/>
				<rect x="246.7" y="447" class="st8" width="3.6" height="5.7"/>
				<rect x="252.9" y="447" class="st8" width="3.6" height="5.7"/>
				<rect x="259.1" y="447" class="st8" width="3.6" height="5.7"/>
			</g>
		</g>
		<path class="st5" d="M236.6,395.5h30.1c1.4,0,2.6,1.2,2.6,2.6v28.4c0,1.4-1.2,2.6-2.6,2.6h-30.1c-1.4,0-2.6-1.2-2.6-2.6v-28.4
			C234,396.7,235.2,395.5,236.6,395.5z"/>
		<g>
			<path class="st6" d="M236.6,394.5h30.1c1.4,0,2.6,1.2,2.6,2.6v28.4c0,1.4-1.2,2.6-2.6,2.6h-30.1c-1.4,0-2.6-1.2-2.6-2.6V397
				C234,395.6,235.2,394.5,236.6,394.5z"/>
			<polygon class="st7" points="237.9,398.5 265.4,398.5 265.4,416.1 260.8,416.1 260.8,418.6 257,418.6 257,420.8 246.3,420.8 
				246.3,418.6 242.5,418.6 242.5,416.1 237.9,416.1 			"/>
			<g>
				<rect x="240.5" y="400" class="st8" width="3.6" height="5.7"/>
				<rect x="246.7" y="400" class="st8" width="3.6" height="5.7"/>
				<rect x="252.9" y="400" class="st8" width="3.6" height="5.7"/>
				<rect x="259.1" y="400" class="st8" width="3.6" height="5.7"/>
			</g>
		</g>
	</g>
	<g>
		<g>
			<path class="st6" d="M298.7,441.5h30.1c1.4,0,2.6,1.2,2.6,2.6v28.4c0,1.4-1.2,2.6-2.6,2.6h-30.1c-1.4,0-2.6-1.2-2.6-2.6V444
				C296.1,442.6,297.3,441.5,298.7,441.5z"/>
			<polygon class="st7" points="300.1,445.5 327.5,445.5 327.5,463.1 322.9,463.1 322.9,465.6 319.1,465.6 319.1,467.8 308.4,467.8 
				308.4,465.6 304.6,465.6 304.6,463.1 300.1,463.1 			"/>
			<g>
				<rect x="302.7" y="447" class="st8" width="3.6" height="5.7"/>
				<rect x="308.9" y="447" class="st8" width="3.6" height="5.7"/>
				<rect x="315.1" y="447" class="st8" width="3.6" height="5.7"/>
				<rect x="321.3" y="447" class="st8" width="3.6" height="5.7"/>
			</g>
		</g>
		<path class="st5" d="M298.7,395.5h30.1c1.4,0,2.6,1.2,2.6,2.6v28.4c0,1.4-1.2,2.6-2.6,2.6h-30.1c-1.4,0-2.6-1.2-2.6-2.6v-28.4
			C296.1,396.7,297.3,395.5,298.7,395.5z"/>
		<g>
			<path class="st6" d="M298.7,394.5h30.1c1.4,0,2.6,1.2,2.6,2.6v28.4c0,1.4-1.2,2.6-2.6,2.6h-30.1c-1.4,0-2.6-1.2-2.6-2.6V397
				C296.1,395.6,297.3,394.5,298.7,394.5z"/>
			<polygon class="st7" points="300.1,398.5 327.5,398.5 327.5,416.1 322.9,416.1 322.9,418.6 319.1,418.6 319.1,420.8 308.4,420.8 
				308.4,418.6 304.6,418.6 304.6,416.1 300.1,416.1 			"/>
			<g>
				<rect x="302.7" y="400" class="st8" width="3.6" height="5.7"/>
				<rect x="308.9" y="400" class="st8" width="3.6" height="5.7"/>
				<rect x="315.1" y="400" class="st8" width="3.6" height="5.7"/>
				<rect x="321.3" y="400" class="st8" width="3.6" height="5.7"/>
			</g>
		</g>
	</g>
	<g>
		<g>
			<path class="st6" d="M360.8,441.5h30.1c1.4,0,2.6,1.2,2.6,2.6v28.4c0,1.4-1.2,2.6-2.6,2.6h-30.1c-1.4,0-2.6-1.2-2.6-2.6V444
				C358.3,442.6,359.4,441.5,360.8,441.5z"/>
			<polygon class="st7" points="362.2,445.5 389.6,445.5 389.6,463.1 385.1,463.1 385.1,465.6 381.3,465.6 381.3,467.8 370.5,467.8 
				370.5,465.6 366.7,465.6 366.7,463.1 362.2,463.1 			"/>
			<g>
				<rect x="364.8" y="447" class="st8" width="3.6" height="5.7"/>
				<rect x="371" y="447" class="st8" width="3.6" height="5.7"/>
				<rect x="377.2" y="447" class="st8" width="3.6" height="5.7"/>
				<rect x="383.4" y="447" class="st8" width="3.6" height="5.7"/>
			</g>
		</g>
		<path class="st5" d="M360.8,395.5h30.1c1.4,0,2.6,1.2,2.6,2.6v28.4c0,1.4-1.2,2.6-2.6,2.6h-30.1c-1.4,0-2.6-1.2-2.6-2.6v-28.4
			C358.3,396.7,359.4,395.5,360.8,395.5z"/>
		<g>
			<path class="st6" d="M360.8,394.5h30.1c1.4,0,2.6,1.2,2.6,2.6v28.4c0,1.4-1.2,2.6-2.6,2.6h-30.1c-1.4,0-2.6-1.2-2.6-2.6V397
				C358.3,395.6,359.4,394.5,360.8,394.5z"/>
			<polygon class="st7" points="362.2,398.5 389.6,398.5 389.6,416.1 385.1,416.1 385.1,418.6 381.3,418.6 381.3,420.8 370.5,420.8 
				370.5,418.6 366.7,418.6 366.7,416.1 362.2,416.1 			"/>
			<g>
				<rect x="364.8" y="400" class="st8" width="3.6" height="5.7"/>
				<rect x="371" y="400" class="st8" width="3.6" height="5.7"/>
				<rect x="377.2" y="400" class="st8" width="3.6" height="5.7"/>
				<rect x="383.4" y="400" class="st8" width="3.6" height="5.7"/>
			</g>
		</g>
	</g>
	<g>
		<g>
			<path class="st6" d="M423,441.5h30.1c1.4,0,2.6,1.2,2.6,2.6v28.4c0,1.4-1.2,2.6-2.6,2.6H423c-1.4,0-2.6-1.2-2.6-2.6V444
				C420.4,442.6,421.5,441.5,423,441.5z"/>
			<polygon class="st7" points="424.3,445.5 451.7,445.5 451.7,463.1 447.2,463.1 447.2,465.6 443.4,465.6 443.4,467.8 432.6,467.8 
				432.6,465.6 428.8,465.6 428.8,463.1 424.3,463.1 			"/>
			<g>
				<rect x="426.9" y="447" class="st8" width="3.6" height="5.7"/>
				<rect x="433.1" y="447" class="st8" width="3.6" height="5.7"/>
				<rect x="439.3" y="447" class="st8" width="3.6" height="5.7"/>
				<rect x="445.5" y="447" class="st8" width="3.6" height="5.7"/>
			</g>
		</g>
		<path class="st5" d="M423,395.5h30.1c1.4,0,2.6,1.2,2.6,2.6v28.4c0,1.4-1.2,2.6-2.6,2.6H423c-1.4,0-2.6-1.2-2.6-2.6v-28.4
			C420.4,396.7,421.5,395.5,423,395.5z"/>
		<g>
			<path class="st6" d="M423,394.5h30.1c1.4,0,2.6,1.2,2.6,2.6v28.4c0,1.4-1.2,2.6-2.6,2.6H423c-1.4,0-2.6-1.2-2.6-2.6V397
				C420.4,395.6,421.5,394.5,423,394.5z"/>
			<polygon class="st7" points="424.3,398.5 451.7,398.5 451.7,416.1 447.2,416.1 447.2,418.6 443.4,418.6 443.4,420.8 432.6,420.8 
				432.6,418.6 428.8,418.6 428.8,416.1 424.3,416.1 			"/>
			<g>
				<rect x="426.9" y="400" class="st8" width="3.6" height="5.7"/>
				<rect x="433.1" y="400" class="st8" width="3.6" height="5.7"/>
				<rect x="439.3" y="400" class="st8" width="3.6" height="5.7"/>
				<rect x="445.5" y="400" class="st8" width="3.6" height="5.7"/>
			</g>
		</g>
	</g>
	<g>
		<g>
			<path class="st6" d="M485.1,441.5h30.1c1.4,0,2.6,1.2,2.6,2.6v28.4c0,1.4-1.2,2.6-2.6,2.6h-30.1c-1.4,0-2.6-1.2-2.6-2.6V444
				C482.5,442.6,483.7,441.5,485.1,441.5z"/>
			<polygon class="st7" points="486.4,445.5 513.8,445.5 513.8,463.1 509.3,463.1 509.3,465.6 505.5,465.6 505.5,467.8 494.7,467.8 
				494.7,465.6 491,465.6 491,463.1 486.4,463.1 			"/>
			<g>
				<rect x="489" y="447" class="st8" width="3.6" height="5.7"/>
				<rect x="495.2" y="447" class="st8" width="3.6" height="5.7"/>
				<rect x="501.4" y="447" class="st8" width="3.6" height="5.7"/>
				<rect x="507.6" y="447" class="st8" width="3.6" height="5.7"/>
			</g>
		</g>
		<path class="st5" d="M485.1,395.5h30.1c1.4,0,2.6,1.2,2.6,2.6v28.4c0,1.4-1.2,2.6-2.6,2.6h-30.1c-1.4,0-2.6-1.2-2.6-2.6v-28.4
			C482.5,396.7,483.7,395.5,485.1,395.5z"/>
		<g>
			<path class="st6" d="M485.1,394.5h30.1c1.4,0,2.6,1.2,2.6,2.6v28.4c0,1.4-1.2,2.6-2.6,2.6h-30.1c-1.4,0-2.6-1.2-2.6-2.6V397
				C482.5,395.6,483.7,394.5,485.1,394.5z"/>
			<polygon class="st7" points="486.4,398.5 513.8,398.5 513.8,416.1 509.3,416.1 509.3,418.6 505.5,418.6 505.5,420.8 494.7,420.8 
				494.7,418.6 491,418.6 491,416.1 486.4,416.1 			"/>
			<g>
				<rect x="489" y="400" class="st8" width="3.6" height="5.7"/>
				<rect x="495.2" y="400" class="st8" width="3.6" height="5.7"/>
				<rect x="501.4" y="400" class="st8" width="3.6" height="5.7"/>
				<rect x="507.6" y="400" class="st8" width="3.6" height="5.7"/>
			</g>
		</g>
	</g>
	<polygon class="st9" points="645.6,496.7 166.8,496.7 69.4,496.7 69.4,513 139.8,513 673.6,513 746.6,513 746.6,496.7 	"/>
	<path class="st6" d="M558.7,474.7c6.6,0,12-5.4,12-12c0-6.6-5.4-12-12-12c-6.6,0-12,5.4-12,12C546.7,469.3,552.1,474.7,558.7,474.7
		z"/>
	<path class="st10" d="M558.7,468.7c3.3,0,6-2.7,6-6s-2.7-6-6-6c-3.3,0-6,2.7-6,6S555.4,468.7,558.7,468.7z"/>
	<path class="st6" d="M597.7,474.7c6.6,0,12-5.4,12-12c0-6.6-5.4-12-12-12c-6.6,0-12,5.4-12,12C585.8,469.3,591.1,474.7,597.7,474.7
		z"/>
	<path class="st10" d="M597.7,468.7c3.3,0,6-2.7,6-6s-2.7-6-6-6c-3.3,0-6,2.7-6,6S594.4,468.7,597.7,468.7z"/>
	<path class="st6" d="M635.7,474.7c6.6,0,12-5.4,12-12c0-6.6-5.4-12-12-12c-6.6,0-12,5.4-12,12C623.7,469.3,629.1,474.7,635.7,474.7
		z"/>
	<path class="st10" d="M635.7,468.7c3.3,0,6-2.7,6-6s-2.7-6-6-6c-3.3,0-6,2.7-6,6S632.4,468.7,635.7,468.7z"/>
	<path class="st10" d="M604.9,357.7h8.7v47.7c0,2.4-2,4.4-4.4,4.4l0,0c-2.4,0-4.4-2-4.4-4.4V357.7z"/>
	<path class="st10" d="M624.1,357.7h8.7v47.7c0,2.4-2,4.4-4.4,4.4l0,0c-2.4,0-4.4-2-4.4-4.4V357.7z"/>
	<path class="st10" d="M643.3,357.7h8.7v47.7c0,2.4-2,4.4-4.4,4.4h0c-2.4,0-4.4-2-4.4-4.4V357.7z"/>
	<path class="st10" d="M662.6,357.7h8.7v47.7c0,2.4-2,4.4-4.4,4.4l0,0c-2.4,0-4.4-2-4.4-4.4V357.7z"/>
	<path class="st10" d="M681.8,357.7h8.7v47.7c0,2.4-2,4.4-4.4,4.4h0c-2.4,0-4.4-2-4.4-4.4V357.7z"/>
	<path class="st10" d="M701,357.7h8.7v47.7c0,2.4-2,4.4-4.4,4.4h0c-2.4,0-4.4-2-4.4-4.4V357.7z"/>
	<path class="st10" d="M720.2,357.7h8.7v47.7c0,2.4-2,4.4-4.4,4.4h0c-2.4,0-4.4-2-4.4-4.4V357.7z"/>
	<path class="st10" d="M547,357.7h8.7v47.7c0,2.4-2,4.4-4.4,4.4h0c-2.4,0-4.4-2-4.4-4.4V357.7z"/>
	<path class="st10" d="M566.3,357.7h8.7v47.7c0,2.4-2,4.4-4.4,4.4h0c-2.4,0-4.4-2-4.4-4.4V357.7z"/>
	<path class="st10" d="M585.6,357.7h8.7v47.7c0,2.4-2,4.4-4.4,4.4h0c-2.4,0-4.4-2-4.4-4.4V357.7z"/>
	<rect x="659.6" y="444.2" class="st6" width="21.2" height="33.8"/>
	<rect x="664" y="460.8" class="st10" width="12.4" height="12.8"/>
	<polygon class="st11" points="664,448.6 676.4,448.6 676.4,461 676.4,461.1 664,461.1 664,460.7 	"/>
	<rect x="692.7" y="444.2" class="st6" width="21.2" height="33.8"/>
	<rect x="697.1" y="460.8" class="st10" width="12.4" height="12.8"/>
	<polygon class="st11" points="697.1,448.6 709.5,448.6 709.5,461 709.5,461.1 697.1,461.1 697.1,460.7 	"/>
	<rect x="546.3" y="422.2" class="st12" width="10.2" height="4.8"/>
	<rect x="565.6" y="422.2" class="st12" width="10.2" height="4.8"/>
	<rect x="584.9" y="422.2" class="st12" width="10.2" height="4.8"/>
	<rect x="604.2" y="422.2" class="st12" width="10.2" height="4.8"/>
	<rect x="623.4" y="422.2" class="st12" width="10.2" height="4.8"/>
	<rect x="642.6" y="422.2" class="st12" width="10.2" height="4.8"/>
	<rect x="661.8" y="422.2" class="st13" width="10.2" height="4.8"/>
	<rect x="681" y="422.2" class="st13" width="10.2" height="4.8"/>
	<rect x="700.3" y="422.2" class="st13" width="10.2" height="4.8"/>
	<rect x="719.5" y="422.2" class="st14" width="10.2" height="4.8"/>
</g>
</svg>
