<?xml version="1.0" encoding="utf-8"?>
<!-- Generator: Adobe Illustrator 19.1.0, SVG Export Plug-In . SVG Version: 6.00 Build 0)  -->
<svg version="1.1" id="objects" xmlns="http://www.w3.org/2000/svg" xmlns:xlink="http://www.w3.org/1999/xlink" x="0px" y="0px"
	 viewBox="0 0 800 800" style="enable-background:new 0 0 800 800;" xml:space="preserve">
<style type="text/css">
	.st0{fill:#E0E0E0;}
	.st1{fill:#35495C;}
	.st2{fill:#969595;}
	.st3{fill:#B3B1B2;}
	.st4{fill:#80807F;}
	.st5{fill:#F5F3F5;}
	.st6{fill:#FFFFFF;}
	.st7{fill:#2C3E50;}
	.st8{fill:#A41D32;}
	.st9{fill:#EEAE23;}
	.st10{fill:#1AC0E2;}
	.st11{fill:#F2F1F0;}
	.st12{fill:#C8C8C8;}
	.st13{fill:#565557;}
	.st14{fill:#FFC93E;}
	.st15{fill:#5BAC46;}
	.st16{fill:#EE496C;}
	.st17{fill:#459FD8;}
	.st18{fill:#8B5E25;}
	.st19{fill:#9F4A9B;}
</style>
<circle class="st0" cx="408" cy="400.2" r="371.3"/>
<g>
	<path class="st1" d="M707,590.8c0,9.6-7.8,17.3-17.4,17.3H125.5c-9.6,0-17.4-7.8-17.4-17.3V214.4c0-9.6,7.8-17.3,17.4-17.3h564.2
		c9.6,0,17.4,7.8,17.4,17.3V590.8z"/>
	<path class="st2" d="M771.2,594.7c0,7.4-6,13.5-13.5,13.5H57.5c-7.4,0-13.5-6.1-13.5-13.5c0-7.5,6-13.5,13.5-13.5h700.2
		C765.1,581.1,771.2,587.2,771.2,594.7z"/>
	<rect x="44" y="581.2" class="st3" width="727.1" height="16.6"/>
	<path class="st4" d="M511.8,581.2c0,4.6-3.7,8.3-8.3,8.3H311.7c-4.6,0-8.3-3.7-8.3-8.3H511.8z"/>
	<rect x="133.1" y="220.3" class="st5" width="549.1" height="360.9"/>
	<rect x="141.5" y="252" class="st6" width="534.3" height="328.2"/>
	<rect x="139.8" y="226.2" class="st7" width="534.3" height="26"/>
	<path class="st8" d="M160.6,238.3c0,3.5-2.8,6.4-6.4,6.4s-6.4-2.8-6.4-6.4c0-3.5,2.8-6.4,6.4-6.4S160.6,234.8,160.6,238.3z"/>
	<path class="st9" d="M186.1,238.3c0,3.5-2.8,6.4-6.4,6.4c-3.5,0-6.4-2.8-6.4-6.4c0-3.5,2.8-6.4,6.4-6.4
		C183.2,232,186.1,234.8,186.1,238.3z"/>
	<path class="st10" d="M211.5,238.3c0,3.5-2.8,6.4-6.3,6.4c-3.5,0-6.4-2.8-6.4-6.4c0-3.5,2.8-6.4,6.4-6.4
		C208.6,232,211.5,234.8,211.5,238.3z"/>
	<path class="st11" d="M653.4,239.2c0,3.5-2.3,6.4-5.2,6.4h-402c-2.8,0-5.2-2.8-5.2-6.4c0-3.5,2.3-6.4,5.2-6.4h402
		C651.1,232.8,653.4,235.7,653.4,239.2z"/>
	<rect x="157.4" y="276.2" class="st12" width="21.1" height="21.1"/>
	<rect x="157.5" y="316.5" class="st12" width="21.1" height="21.1"/>
	<rect x="157.2" y="356.6" class="st12" width="21.1" height="21.1"/>
	<rect x="157.3" y="397.8" class="st12" width="21.1" height="21.1"/>
	<rect x="157.3" y="523.1" class="st12" width="21.1" height="21.1"/>
	<rect x="157.2" y="481.5" class="st12" width="21.1" height="21.1"/>
	<rect x="157.3" y="439" class="st12" width="21.1" height="21.1"/>
	<g>
		<path class="st13" d="M226.8,267.3v7l-20,9.7l20,9.7v7L199.2,287v-6L226.8,267.3z"/>
		<path class="st13" d="M229.2,279.3h27.9v9.3h-27.9V279.3z"/>
		<path class="st13" d="M260.2,300.7v-7l20-9.7l-20-9.7v-7l27.5,13.7v6L260.2,300.7z"/>
	</g>
	<rect x="195.3" y="320.1" class="st14" width="127.3" height="13.3"/>
	<rect x="195.3" y="361" class="st15" width="64.3" height="13.3"/>
	<rect x="195.2" y="401" class="st16" width="31.2" height="13.3"/>
	<rect x="194.9" y="442.2" class="st14" width="82.4" height="13.3"/>
	<rect x="194.8" y="485.8" class="st15" width="173.7" height="13.3"/>
	<rect x="238.7" y="401.3" class="st17" width="73.5" height="13.3"/>
	<rect x="270.6" y="360.7" class="st18" width="107.4" height="13.3"/>
	<rect x="295.7" y="442.2" class="st18" width="102.5" height="13.3"/>
	<rect x="384" y="485.4" class="st16" width="127.3" height="13.3"/>
	<rect x="327" y="401.3" class="st19" width="127.3" height="13.3"/>
	<g>
		<path class="st13" d="M226,516.4v7l-20,9.7l20,9.7v7L198.5,536v-6L226,516.4z"/>
		<path class="st13" d="M259.5,549.7v-7l20-9.7l-20-9.7v-7l27.5,13.7v6L259.5,549.7z"/>
		<g>
			<path class="st13" d="M238.2,549.7H231l16.8-33h7.1L238.2,549.7z"/>
		</g>
	</g>
	<rect x="387" y="360.5" class="st16" width="46.9" height="13.3"/>
	<rect x="412.6" y="442.1" class="st17" width="73.5" height="13.3"/>
	<rect x="446.9" y="360.9" class="st17" width="83" height="13.3"/>
	<rect x="546" y="360.5" class="st14" width="46.5" height="13.3"/>
	<rect x="467.3" y="401" class="st14" width="31.2" height="13.3"/>
	<rect x="498.4" y="441.6" class="st16" width="51.9" height="13.3"/>
	<rect x="528.6" y="485.1" class="st18" width="31.2" height="13.3"/>
	<rect x="512.5" y="400.6" class="st15" width="120.3" height="13.3"/>
	<rect x="563" y="441.6" class="st19" width="87.1" height="13.3"/>
</g>
</svg>
