<?xml version="1.0" encoding="utf-8"?>
<!-- Generator: Adobe Illustrator 19.1.0, SVG Export Plug-In . SVG Version: 6.00 Build 0)  -->
<svg version="1.1" id="objects" xmlns="http://www.w3.org/2000/svg" xmlns:xlink="http://www.w3.org/1999/xlink" x="0px" y="0px"
	 viewBox="0 0 800 800" style="enable-background:new 0 0 800 800;" xml:space="preserve">
<style type="text/css">
	.st0{fill:#E0E0E0;}
	.st1{fill:#4D4D4D;}
	.st2{fill:#F2F2F2;}
	.st3{fill:#B3B3B3;}
	.st4{fill:#FF4522;}
	.st5{fill:#47DEE5;}
	.st6{fill:#999999;}
</style>
<circle class="st0" cx="408" cy="400.2" r="371.3"/>
<g>
	<g>
		<g>
			<path class="st1" d="M498.2,470h-4c0,0-23.6-6.3-23.6-72c0-19.4-104-19.4-104,1.4c0,63.3-24.2,70.6-24.2,70.6h-3.3
				c-2.9,0-5.2,2.3-5.2,5.2v2.6c0,2.9,2.3,5.2,5.2,5.2h159c2.9,0,5.8-2.3,5.8-5.2v-2.6C504,472.3,501.1,470,498.2,470z"/>
			<path class="st1" d="M603.2,141H233.6c-7.1,0-13.6,3.7-13.6,10.9v223.6v34.3c0,7.1,6.5,16.3,13.6,16.3h369.6
				c7.1,0,10.8-9.2,10.8-16.3v-34.3V151.9C614,144.7,610.3,141,603.2,141z"/>
			<rect x="239" y="162" class="st2" width="356" height="204"/>
			<path class="st3" d="M434.5,396.7c0,8.9-7.2,16.1-16.1,16.1l0,0c-8.9,0-16.1-7.2-16.1-16.1l0,0c0-8.9,7.2-16.1,16.1-16.1l0,0
				C427.3,380.6,434.5,387.8,434.5,396.7L434.5,396.7z"/>
		</g>
	</g>
	<g>
		<path class="st4" d="M377,190.7c0,2.9-2.4,5.3-5.8,5.3h-66.4c-3.4,0-6.7-2.4-6.7-5.3v-10.4c0-2.9,3.3-5.3,6.7-5.3h66.4
			c3.4,0,5.8,2.4,5.8,5.3V190.7z"/>
		<path class="st5" d="M535,257.7c0,2.9-2.6,5.3-6.1,5.3H304.7c-3.4,0-6.7-2.4-6.7-5.3v-49.4c0-2.9,3.3-5.3,6.7-5.3h224.2
			c3.4,0,6.1,2.4,6.1,5.3V257.7z"/>
		<path class="st6" d="M371,299.7c0,2.9-2.3,5.3-5.7,5.3h-60.6c-3.4,0-6.7-2.4-6.7-5.3v-26.4c0-2.9,3.3-5.3,6.7-5.3h60.6
			c3.4,0,5.7,2.4,5.7,5.3V299.7z"/>
		<path class="st6" d="M451,299.7c0,2.9-2.2,5.3-5.7,5.3h-60.6c-3.4,0-6.8-2.4-6.8-5.3v-26.4c0-2.9,3.3-5.3,6.8-5.3h60.6
			c3.4,0,5.7,2.4,5.7,5.3V299.7z"/>
		<path class="st6" d="M535,299.7c0,2.9-2.6,5.3-6.1,5.3h-60.6c-3.4,0-6.4-2.4-6.4-5.3v-26.4c0-2.9,2.9-5.3,6.4-5.3h60.6
			c3.4,0,6.1,2.4,6.1,5.3V299.7z"/>
		<g>
			<path class="st3" d="M451,315c0,1.2-0.7,2-2.1,2h-67.5c-1.4,0-3.4-0.8-3.4-2v-0.9c0-1.2,2.1-2.1,3.4-2.1h67.5
				c1.4,0,2.1,0.9,2.1,2.1V315z"/>
			<path class="st3" d="M451,323.8c0,1.2-0.7,2.2-2.1,2.2h-67.5c-1.4,0-3.4-1-3.4-2.2v-0.9c0-1.2,2.1-1.9,3.4-1.9h67.5
				c1.4,0,2.1,0.7,2.1,1.9V323.8z"/>
			<path class="st3" d="M451,332.6c0,1.2-0.7,2.4-2.1,2.4h-67.5c-1.4,0-3.4-1.2-3.4-2.4v-0.9c0-1.2,2.1-1.7,3.4-1.7h67.5
				c1.4,0,2.1,0.5,2.1,1.7V332.6z"/>
			<path class="st3" d="M451,341.4c0,1.2-0.7,2.6-2.1,2.6h-67.5c-1.4,0-3.4-1.4-3.4-2.6v-0.9c0-1.2,2.1-2.5,3.4-2.5h67.5
				c1.4,0,2.1,1.3,2.1,2.5V341.4z"/>
			<path class="st3" d="M418,350.2c0,1.2-0.8,1.8-2.2,1.8h-34.3c-1.4,0-3.4-0.6-3.4-1.8v-0.9c0-1.2,2.1-2.3,3.4-2.3h34.3
				c1.4,0,2.2,1.1,2.2,2.3V350.2z"/>
		</g>
		<g>
			<path class="st3" d="M533,315c0,1.2,0.2,2-1.2,2h-67.5c-1.4,0-2.3-0.8-2.3-2v-0.9c0-1.2,0.9-2.1,2.3-2.1h67.5
				c1.4,0,1.2,0.9,1.2,2.1V315z"/>
			<path class="st3" d="M533,323.8c0,1.2,0.2,2.2-1.2,2.2h-67.5c-1.4,0-2.3-1-2.3-2.2v-0.9c0-1.2,0.9-1.9,2.3-1.9h67.5
				c1.4,0,1.2,0.7,1.2,1.9V323.8z"/>
			<path class="st3" d="M533,332.6c0,1.2,0.2,2.4-1.2,2.4h-67.5c-1.4,0-2.3-1.2-2.3-2.4v-0.9c0-1.2,0.9-1.7,2.3-1.7h67.5
				c1.4,0,1.2,0.5,1.2,1.7V332.6z"/>
			<path class="st3" d="M533,341.4c0,1.2,0.2,2.6-1.2,2.6h-67.5c-1.4,0-2.3-1.4-2.3-2.6v-0.9c0-1.2,0.9-2.5,2.3-2.5h67.5
				c1.4,0,1.2,1.3,1.2,2.5V341.4z"/>
			<path class="st3" d="M500,350.2c0,1.2,0.1,1.8-1.3,1.8h-34.3c-1.4,0-2.3-0.6-2.3-1.8v-0.9c0-1.2,0.9-2.3,2.3-2.3h34.3
				c1.4,0,1.3,1.1,1.3,2.3V350.2z"/>
		</g>
		<g>
			<path class="st3" d="M370,315c0,1.2-0.5,2-1.9,2h-67.5c-1.4,0-2.6-0.8-2.6-2v-0.9c0-1.2,1.2-2.1,2.6-2.1h67.5
				c1.4,0,1.9,0.9,1.9,2.1V315z"/>
			<path class="st3" d="M370,323.8c0,1.2-0.5,2.2-1.9,2.2h-67.5c-1.4,0-2.6-1-2.6-2.2v-0.9c0-1.2,1.2-1.9,2.6-1.9h67.5
				c1.4,0,1.9,0.7,1.9,1.9V323.8z"/>
			<path class="st3" d="M370,332.6c0,1.2-0.5,2.4-1.9,2.4h-67.5c-1.4,0-2.6-1.2-2.6-2.4v-0.9c0-1.2,1.2-1.7,2.6-1.7h67.5
				c1.4,0,1.9,0.5,1.9,1.7V332.6z"/>
			<path class="st3" d="M370,341.4c0,1.2-0.5,2.6-1.9,2.6h-67.5c-1.4,0-2.6-1.4-2.6-2.6v-0.9c0-1.2,1.2-2.5,2.6-2.5h67.5
				c1.4,0,1.9,1.3,1.9,2.5V341.4z"/>
			<path class="st3" d="M337,350.2c0,1.2-0.6,1.8-2,1.8h-34.3c-1.4,0-2.6-0.6-2.6-1.8v-0.9c0-1.2,1.2-2.3,2.6-2.3H335
				c1.4,0,2,1.1,2,2.3V350.2z"/>
		</g>
	</g>
</g>
<g>
	<g>
		<g>
			<path class="st1" d="M395,645H93V451.3c0-4,4-6.3,8-6.3h288c4,0,6,2.3,6,6.3V645z"/>
			<rect x="105" y="459" class="st2" width="280" height="171"/>
			<path class="st1" d="M434,653v-8.4c0-2-1-2.6-3.1-2.6h-370c-2,0-3.9,0.5-3.9,2.6v8.4h0.3c0,0,9.1,7,14.6,7H420
				c5.5,0,14.6-7,14.6-7H434z"/>
			<path class="st3" d="M278.7,648h-65.6c-5.5,0-5.5-6-5.5-6h76.6C284.2,642,284.2,648,278.7,648z"/>
		</g>
	</g>
	<g>
		<path class="st4" d="M217,483.4c0,2.4-1.6,4.6-4.1,4.6h-47.1c-2.4,0-4.8-2.1-4.8-4.6v-8.8c0-2.4,2.4-4.6,4.8-4.6h47.1
			c2.4,0,4.1,2.2,4.1,4.6V483.4z"/>
		<path class="st5" d="M329,539.6c0,2.4-2,4.4-4.4,4.4H165.4c-2.4,0-4.4-2-4.4-4.4v-41.2c0-2.4,2-4.4,4.4-4.4h159.2
			c2.4,0,4.4,2,4.4,4.4V539.6z"/>
		<path class="st6" d="M213,574.7c0,2.4-2.1,4.3-4.5,4.3h-42.7c-2.4,0-4.8-1.9-4.8-4.3v-22.1c0-2.4,2.4-4.6,4.8-4.6h42.7
			c2.4,0,4.5,2.2,4.5,4.6V574.7z"/>
		<path class="st6" d="M270,574.6c0,2.4-2,4.4-4.4,4.4h-42.2c-2.4,0-4.4-2-4.4-4.4v-22.2c0-2.4,2-4.4,4.4-4.4h42.2
			c2.4,0,4.4,2,4.4,4.4V574.6z"/>
		<path class="st6" d="M328,574.6c0,2.4-2,4.4-4.4,4.4h-42.2c-2.4,0-4.4-2-4.4-4.4v-22.2c0-2.4,2-4.4,4.4-4.4h42.2
			c2.4,0,4.4,2,4.4,4.4V574.6z"/>
		<g>
			<path class="st3" d="M270,587.5c0,1-0.5,1.5-1.5,1.5h-47.9c-1,0-1.6-0.4-1.6-1.5v-0.7c0-1,0.6-1.8,1.6-1.8h47.9
				c1,0,1.5,0.8,1.5,1.8V587.5z"/>
			<path class="st3" d="M270,594.9c0,1-0.5,2.1-1.5,2.1h-47.9c-1,0-1.6-1.1-1.6-2.1v-0.7c0-1,0.6-2.2,1.6-2.2h47.9
				c1,0,1.5,1.1,1.5,2.2V594.9z"/>
			<path class="st3" d="M270,602.3c0,1-0.5,2.7-1.5,2.7h-47.9c-1,0-1.6-1.7-1.6-2.7v-0.7c0-1,0.6-2.5,1.6-2.5h47.9
				c1,0,1.5,1.5,1.5,2.5V602.3z"/>
			<path class="st3" d="M270,609.6c0,1-0.5,2.4-1.5,2.4h-47.9c-1,0-1.6-1.4-1.6-2.4v-0.7c0-1,0.6-1.9,1.6-1.9h47.9
				c1,0,1.5,0.9,1.5,1.9V609.6z"/>
			<path class="st3" d="M246,617c0,1,0,2-1,2h-24.4c-1,0-1.6-1-1.6-2v-0.7c0-1,0.6-2.2,1.6-2.2H245c1,0,1,1.2,1,2.2V617z"/>
		</g>
		<g>
			<path class="st3" d="M329,587.5c0,1-0.6,1.5-1.6,1.5h-47.9c-1,0-2.4-0.4-2.4-1.5v-0.7c0-1,1.5-1.8,2.4-1.8h47.9
				c1,0,1.6,0.8,1.6,1.8V587.5z"/>
			<path class="st3" d="M329,594.9c0,1-0.6,2.1-1.6,2.1h-47.9c-1,0-2.4-1.1-2.4-2.1v-0.7c0-1,1.5-2.2,2.4-2.2h47.9
				c1,0,1.6,1.1,1.6,2.2V594.9z"/>
			<path class="st3" d="M329,602.3c0,1-0.6,2.7-1.6,2.7h-47.9c-1,0-2.4-1.7-2.4-2.7v-0.7c0-1,1.5-2.5,2.4-2.5h47.9
				c1,0,1.6,1.5,1.6,2.5V602.3z"/>
			<path class="st3" d="M329,609.6c0,1-0.6,2.4-1.6,2.4h-47.9c-1,0-2.4-1.4-2.4-2.4v-0.7c0-1,1.5-1.9,2.4-1.9h47.9
				c1,0,1.6,0.9,1.6,1.9V609.6z"/>
			<path class="st3" d="M306,617c0,1-1.2,2-2.2,2h-24.4c-1,0-2.4-1-2.4-2v-0.7c0-1,1.5-2.2,2.4-2.2h24.4c1,0,2.2,1.2,2.2,2.2V617z"
				/>
		</g>
		<g>
			<path class="st3" d="M213,587.5c0,1-0.9,1.5-1.9,1.5h-47.9c-1,0-2.2-0.4-2.2-1.5v-0.7c0-1,1.2-1.8,2.2-1.8h47.9
				c1,0,1.9,0.8,1.9,1.8V587.5z"/>
			<path class="st3" d="M213,594.9c0,1-0.9,2.1-1.9,2.1h-47.9c-1,0-2.2-1.1-2.2-2.1v-0.7c0-1,1.2-2.2,2.2-2.2h47.9
				c1,0,1.9,1.1,1.9,2.2V594.9z"/>
			<path class="st3" d="M213,602.3c0,1-0.9,2.7-1.9,2.7h-47.9c-1,0-2.2-1.7-2.2-2.7v-0.7c0-1,1.2-2.5,2.2-2.5h47.9
				c1,0,1.9,1.5,1.9,2.5V602.3z"/>
			<path class="st3" d="M213,609.6c0,1-0.9,2.4-1.9,2.4h-47.9c-1,0-2.2-1.4-2.2-2.4v-0.7c0-1,1.2-1.9,2.2-1.9h47.9
				c1,0,1.9,0.9,1.9,1.9V609.6z"/>
			<path class="st3" d="M189,617c0,1-0.4,2-1.4,2h-24.4c-1,0-2.2-1-2.2-2v-0.7c0-1,1.2-2.2,2.2-2.2h24.4c1,0,1.4,1.2,1.4,2.2V617z"
				/>
		</g>
	</g>
</g>
<g>
	<g>
		<g>
			<path class="st1" d="M738,544.5c0,7.7-6,14.5-13.7,14.5h-143c-7.7,0-14.3-6.9-14.3-14.5V346.5c0-7.7,6.7-14.5,14.3-14.5h143
				c7.7,0,13.7,6.9,13.7,14.5V544.5z"/>
			<rect x="581" y="349" class="st2" width="143" height="174"/>
			<path class="st3" d="M664.3,540.5c0,6.3-5.1,11.5-11.5,11.5c-6.3,0-11.5-5.1-11.5-11.5c0-6.3,5.1-11.5,11.5-11.5
				C659.2,529,664.3,534.2,664.3,540.5z"/>
		</g>
	</g>
	<g>
		<path class="st4" d="M654,376.1c0,2.4-1.8,3.9-4.2,3.9h-46.4c-2.4,0-4.4-1.5-4.4-3.9v-8.7c0-2.4,1.9-4.4,4.4-4.4h46.4
			c2.4,0,4.2,1.9,4.2,4.4V376.1z"/>
		<path class="st5" d="M706,431.2c0,2.4-1.6,4.8-4,4.8h-98.6c-2.4,0-4.4-2.4-4.4-4.8v-40.6c0-2.4,1.9-4.6,4.4-4.6H702
			c2.4,0,4,2.2,4,4.6V431.2z"/>
		<path class="st6" d="M650,466c0,2.4-2.2,4-4.6,4h-42.1c-2.4,0-4.4-1.6-4.4-4v-21.8c0-2.4,1.9-4.2,4.4-4.2h42.1
			c2.4,0,4.6,1.8,4.6,4.2V466z"/>
		<path class="st6" d="M706,466c0,2.4-1.6,4-4,4h-42.1c-2.4,0-3.9-1.6-3.9-4v-21.8c0-2.4,1.5-4.2,3.9-4.2H702c2.4,0,4,1.8,4,4.2V466
			z"/>
		<g>
			<path class="st3" d="M706,478.7c0,1-0.5,1.3-1.4,1.3h-47.2c-1,0-1.3-0.3-1.3-1.3V478c0-1,0.4-2,1.3-2h47.2c1,0,1.4,1,1.4,2V478.7
				z"/>
			<path class="st3" d="M706,485.9c0,1-0.5,2.1-1.4,2.1h-47.2c-1,0-1.3-1.1-1.3-2.1v-0.7c0-1,0.4-2.2,1.3-2.2h47.2
				c1,0,1.4,1.2,1.4,2.2V485.9z"/>
			<path class="st3" d="M706,493.2c0,1-0.5,1.8-1.4,1.8h-47.2c-1,0-1.3-0.8-1.3-1.8v-0.7c0-1,0.4-1.5,1.3-1.5h47.2
				c1,0,1.4,0.5,1.4,1.5V493.2z"/>
			<path class="st3" d="M706,500.4c0,1-0.5,1.6-1.4,1.6h-47.2c-1,0-1.3-0.6-1.3-1.6v-0.7c0-1,0.4-1.7,1.3-1.7h47.2
				c1,0,1.4,0.7,1.4,1.7V500.4z"/>
			<path class="st3" d="M683,507.7c0,1-0.7,2.3-1.6,2.3h-24c-1,0-1.3-1.3-1.3-2.3V507c0-1,0.4-2,1.3-2h24c1,0,1.6,1,1.6,2V507.7z"/>
		</g>
		<g>
			<path class="st3" d="M650,478.7c0,1-1,1.3-2,1.3h-47.2c-1,0-1.8-0.3-1.8-1.3V478c0-1,0.8-2,1.8-2H648c1,0,2,1,2,2V478.7z"/>
			<path class="st3" d="M650,485.9c0,1-1,2.1-2,2.1h-47.2c-1,0-1.8-1.1-1.8-2.1v-0.7c0-1,0.8-2.2,1.8-2.2H648c1,0,2,1.2,2,2.2V485.9
				z"/>
			<path class="st3" d="M650,493.2c0,1-1,1.8-2,1.8h-47.2c-1,0-1.8-0.8-1.8-1.8v-0.7c0-1,0.8-1.5,1.8-1.5H648c1,0,2,0.5,2,1.5V493.2
				z"/>
			<path class="st3" d="M650,500.4c0,1-1,1.6-2,1.6h-47.2c-1,0-1.8-0.6-1.8-1.6v-0.7c0-1,0.8-1.7,1.8-1.7H648c1,0,2,0.7,2,1.7V500.4
				z"/>
			<path class="st3" d="M627,507.7c0,1-1.2,2.3-2.2,2.3h-24c-1,0-1.8-1.3-1.8-2.3V507c0-1,0.8-2,1.8-2h24c1,0,2.2,1,2.2,2V507.7z"/>
		</g>
	</g>
</g>
<g>
	<g>
		<g>
			<path class="st1" d="M594,681.7c0,6.5-6.3,12.3-12.7,12.3h-74.3c-6.5,0-11.9-5.8-11.9-12.3V521.3c0-6.5,5.4-12.3,11.9-12.3h74.3
				c6.5,0,12.7,5.8,12.7,12.3V681.7z"/>
			<g>
				<path class="st1" d="M594,681.7c0,6.5-6.3,12.3-12.7,12.3h-74.3c-6.5,0-11.9-5.8-11.9-12.3V521.3c0-6.5,5.4-12.3,11.9-12.3h74.3
					c6.5,0,12.7,5.8,12.7,12.3V681.7z"/>
				<rect x="502" y="532" class="st2" width="85" height="135"/>
				<path class="st3" d="M551.2,680.2c0,3.9-3.2,7.1-7.1,7.1c-3.9,0-7.1-3.2-7.1-7.1c0-3.9,3.2-7.1,7.1-7.1
					C548,673.1,551.2,676.3,551.2,680.2z"/>
				<path class="st3" d="M561,523.1c0,1-0.8,1.9-1.9,1.9h-35.3c-1,0-1.9-0.8-1.9-1.9v-0.3c0-1,0.8-1.9,1.9-1.9h35.3
					c1,0,1.9,0.8,1.9,1.9V523.1z"/>
			</g>
		</g>
	</g>
	<g>
		<path class="st4" d="M578,552.5c0,1.9-1.6,3.5-3.5,3.5h-60c-1.9,0-3.5-1.6-3.5-3.5v-7c0-1.9,1.6-3.5,3.5-3.5h60
			c1.9,0,3.5,1.6,3.5,3.5V552.5z"/>
		<path class="st5" d="M578,596.5c0,1.9-1.6,3.5-3.5,3.5h-60c-1.9,0-3.5-1.6-3.5-3.5v-33c0-1.9,1.6-3.5,3.5-3.5h60
			c1.9,0,3.5,1.6,3.5,3.5V596.5z"/>
		<path class="st6" d="M578,624.6c0,1.9-1.2,3.4-3.2,3.4h-60.6c-2,0-3.2-1.5-3.2-3.4V607c0-1.9,1.2-3,3.2-3h60.6c2,0,3.2,1,3.2,3
			V624.6z"/>
		<path class="st6" d="M578,653.6c0,1.9-1.2,3.4-3.2,3.4h-60.6c-2,0-3.2-1.5-3.2-3.4V636c0-1.9,1.2-3,3.2-3h60.6c2,0,3.2,1,3.2,3
			V653.6z"/>
	</g>
</g>
</svg>
